<svg version="1.0" xmlns="http://www.w3.org/2000/svg"
 width="50.000000pt" height="50.000000pt" viewBox="0 0 50.000000 50.000000"
 preserveAspectRatio="xMidYMid meet">
    <style>
        @keyframes first {
            from {
                transform: translateY(0);
            }

            to {
                transform: translateY(-500px);
            }
        }

        #man-animated {
            animation: first 2s 0ms infinite alternate;
        }
    </style>

    <g transform="translate(0.000000,50.000000) scale(0.100000,-0.100000)" stroke="none" class="page-icon">
        <path id="man-animated" d="M213 464 c-3 -8 0 -26 8 -40 11 -22 10 -27 -9 -46 -17 -18 -24 -19
        -36 -9 -8 7 -23 11 -33 9 -15 -3 -18 -13 -18 -56 0 -40 -5 -56 -18 -63 -9 -6
        -17 -22 -17 -37 -1 -33 -19 -58 -45 -63 -14 -3 -20 -12 -20 -29 0 -20 5 -25
        25 -25 17 0 26 6 28 20 5 35 26 67 48 76 19 7 22 15 21 58 -2 40 2 53 18 65
        42 32 77 12 54 -30 -10 -19 -10 -29 0 -48 10 -19 10 -27 0 -44 -11 -17 -11
        -25 1 -47 12 -22 12 -28 -2 -41 -13 -13 -19 -14 -35 -3 -11 7 -28 9 -37 6 -18
        -7 -22 -42 -6 -52 6 -3 10 -15 10 -26 0 -10 5 -19 10 -19 6 0 10 8 10 19 0 30
        24 45 49 29 17 -10 25 -10 42 0 25 16 49 1 49 -29 0 -11 5 -19 10 -19 6 0 10
        9 10 19 0 11 5 23 10 26 16 10 12 45 -6 52 -9 3 -26 1 -37 -6 -16 -11 -22 -10
        -35 3 -14 13 -14 19 -2 41 11 20 11 29 1 49 -10 19 -10 27 0 44 11 17 11 25
        -1 47 -12 23 -12 28 7 46 18 18 23 19 41 8 26 -16 36 -53 21 -78 -26 -40 15
        -68 52 -35 10 9 35 17 56 17 33 2 38 5 38 27 0 33 -39 40 -55 11 -28 -53 -77
        -3 -64 65 5 27 2 35 -11 40 -10 4 -26 2 -36 -4 -41 -26 -70 -6 -49 33 16 30 7
        55 -20 55 -11 0 -23 -7 -27 -16z"/>
    </g>
</svg>
