<svg version="1.0" xmlns="http://www.w3.org/2000/svg"
 width="58.000000pt" height="58.000000pt" viewBox="0 0 58.000000 58.000000"
 preserveAspectRatio="xMidYMid meet">
    <g transform="translate(0.000000,58.000000) scale(0.100000,-0.100000)" stroke="none" class="page-icon">
        <path d="M0 500 c0 -47 4 -80 10 -80 6 0 10 30 10 70 l0 70 49 0 c28 0 53 5
        56 10 4 6 -18 10 -59 10 l-66 0 0 -80z"/>
        <path d="M150 570 c0 -5 5 -10 10 -10 6 0 10 5 10 10 0 6 -4 10 -10 10 -5 0
        -10 -4 -10 -10z"/>
        <path d="M420 570 c0 -6 30 -10 70 -10 l70 0 0 -70 c0 -40 4 -70 10 -70 6 0
        10 33 10 80 l0 80 -80 0 c-47 0 -80 -4 -80 -10z"/>
        <path d="M82 453 l1 -48 4 42 c4 41 5 42 46 46 l42 4 -47 1 -48 2 2 -47z"/>
        <path d="M447 493 c41 -4 42 -5 46 -46 l4 -42 1 48 2 47 -47 -2 -48 -1 42 -4z"/>
        <path d="M367 443 c-4 -3 -7 -46 -7 -95 l0 -89 -22 15 c-27 19 -57 21 -64 3
        -7 -19 53 -149 78 -168 13 -10 22 -31 25 -62 l6 -47 87 0 87 0 8 68 c4 37 8
        107 9 156 1 95 3 90 -59 116 -16 7 -38 16 -47 21 -10 5 -25 9 -33 9 -10 0 -15
        10 -15 28 0 39 -32 67 -53 45z m45 -102 c1 -72 2 -78 7 -36 4 35 10 50 21 50
        11 0 17 -15 21 -50 4 -34 6 -40 7 -19 2 32 23 60 35 47 4 -3 7 -22 7 -40 0
        -20 4 -32 10 -28 6 3 10 17 10 31 0 15 6 24 15 24 12 0 15 -17 14 -97 -2 -150
        0 -147 -92 -151 -47 -2 -77 1 -77 7 0 6 -11 20 -24 33 -30 28 -89 155 -76 163
        14 9 48 -13 55 -35 15 -47 25 -13 25 83 0 57 3 106 6 110 3 3 12 3 20 0 10 -4
        14 -28 16 -92z"/>
        <path d="M82 128 l-2 -48 48 2 47 1 -42 4 c-41 4 -42 5 -46 46 l-4 42 -1 -47z"/>
        <path d="M0 80 l0 -80 80 0 c47 0 80 4 80 10 0 6 -30 10 -70 10 l-70 0 0 70
        c0 40 -4 70 -10 70 -6 0 -10 -33 -10 -80z"/>
    </g>
</svg>
