<svg version="1.0" xmlns="http://www.w3.org/2000/svg"
 width="50.000000pt" height="50.000000pt" viewBox="0 0 50.000000 50.000000"
 preserveAspectRatio="xMidYMid meet">
    <g transform="translate(0.000000,50.000000) scale(0.100000,-0.100000)" stroke="none" class="page-icon">
        <path d="M100 402 c-19 -10 -48 -35 -64 -55 -82 -102 -11 -262 124 -275 60 -6
        64 5 14 45 -88 70 -104 90 -104 128 0 29 8 45 34 71 48 48 95 47 143 -1 34
        -34 35 -38 30 -86 -6 -46 -4 -51 19 -61 33 -15 45 -2 51 55 7 58 -23 125 -72
        162 -48 37 -125 45 -175 17z"/>
        <path d="M290 412 c0 -5 16 -23 36 -39 88 -70 104 -90 104 -128 0 -29 -8 -45
        -34 -71 -48 -48 -95 -47 -143 1 -34 34 -35 38 -30 86 6 46 4 51 -19 61 -34 16
        -46 1 -51 -64 -5 -63 16 -108 70 -152 104 -83 264 -9 274 126 7 95 -62 177
        -157 186 -31 3 -50 1 -50 -6z"/>
    </g>
</svg>
