<svg version="1.0" xmlns="http://www.w3.org/2000/svg"
 width="50.000000pt" height="50.000000pt" viewBox="0 0 50.000000 50.000000"
 preserveAspectRatio="xMidYMid meet">
    <g transform="translate(0.000000,50.000000) scale(0.100000,-0.100000)" stroke="none" class="page-icon">
        <path d="M350 437 l-64 -42 -126 -5 -125 -5 0 -25 c0 -24 2 -25 82 -28 l82 -3
        3 -147 c3 -139 4 -147 23 -147 18 0 20 8 23 81 3 94 0 91 126 119 76 17 100
        35 78 57 -7 7 -32 5 -80 -6 -39 -9 -74 -16 -77 -16 -3 0 -5 14 -3 32 3 29 12
        38 83 79 64 38 80 52 80 71 0 36 -32 32 -105 -15z"/>
        <path d="M296 184 c-31 -30 -9 -84 34 -84 24 0 50 26 50 50 0 43 -54 65 -84
        34z"/>
    </g>
</svg>
