<svg version="1.0" xmlns="http://www.w3.org/2000/svg"
 width="50.000000pt" height="50.000000pt" viewBox="0 0 50.000000 50.000000"
 preserveAspectRatio="xMidYMid meet">

<g transform="translate(0.000000,50.000000) scale(0.100000,-0.100000)" stroke="none" class="page-icon">
        <path d="M40 415 l0 -45 45 0 45 0 0 45 0 45 -45 0 -45 0 0 -45z"/>
        <path d="M150 415 l0 -45 45 0 45 0 0 45 0 45 -45 0 -45 0 0 -45z"/>
        <path d="M260 415 l0 -45 45 0 45 0 0 45 0 45 -45 0 -45 0 0 -45z"/>
        <path d="M370 415 l0 -45 45 0 45 0 0 45 0 45 -45 0 -45 0 0 -45z"/>
        <path d="M40 305 l0 -45 45 0 45 0 0 45 0 45 -45 0 -45 0 0 -45z"/>
        <path d="M150 305 l0 -45 45 0 45 0 0 45 0 45 -45 0 -45 0 0 -45z"/>
        <path d="M260 305 l0 -45 45 0 45 0 0 45 0 45 -45 0 -45 0 0 -45z"/>
        <path d="M370 305 l0 -45 45 0 45 0 0 45 0 45 -45 0 -45 0 0 -45z"/>
        <path d="M40 195 l0 -45 45 0 45 0 0 45 0 45 -45 0 -45 0 0 -45z"/>
        <path d="M150 195 l0 -45 45 0 45 0 0 45 0 45 -45 0 -45 0 0 -45z"/>
        <path d="M260 195 l0 -45 45 0 45 0 0 45 0 45 -45 0 -45 0 0 -45z"/>
        <path d="M370 195 l0 -45 45 0 45 0 0 45 0 45 -45 0 -45 0 0 -45z"/>
        <path d="M40 85 l0 -45 45 0 45 0 0 45 0 45 -45 0 -45 0 0 -45z"/>
        <path d="M150 85 l0 -45 45 0 45 0 0 45 0 45 -45 0 -45 0 0 -45z"/>
        <path d="M260 85 l0 -45 45 0 45 0 0 45 0 45 -45 0 -45 0 0 -45z"/>
        <path d="M370 85 l0 -45 45 0 45 0 0 45 0 45 -45 0 -45 0 0 -45z"/>
    </g>
</svg>
