<svg version="1.0" xmlns="http://www.w3.org/2000/svg"
 width="60.000000pt" height="60.000000pt" viewBox="0 0 60.000000 60.000000"
 preserveAspectRatio="xMidYMid meet">
    <g transform="translate(0.000000,60.000000) scale(0.100000,-0.100000)" stroke="none" class="page-icon">
        <path d="M290 581 c0 -14 -10 -21 -37 -26 -103 -19 -189 -105 -208 -208 -5
        -27 -12 -37 -26 -37 -11 0 -19 -4 -19 -10 0 -5 8 -10 19 -10 14 0 21 -10 26
        -37 19 -103 105 -189 208 -208 27 -5 37 -12 37 -26 0 -11 5 -19 10 -19 6 0 10
        8 10 19 0 14 10 21 37 26 103 19 189 105 208 208 5 27 12 37 26 37 11 0 19 5
        19 10 0 6 -8 10 -19 10 -14 0 -21 10 -26 37 -19 103 -105 189 -208 208 -27 5
        -37 12 -37 26 0 11 -4 19 -10 19 -5 0 -10 -8 -10 -19z m88 -115 c31 -16 74
        -61 91 -93 6 -12 11 -45 11 -73 0 -57 -10 -81 -49 -123 -38 -42 -73 -57 -131
        -57 -28 0 -63 6 -78 14 -31 16 -74 61 -91 93 -15 30 -14 119 3 151 15 29 59
        73 91 90 28 16 121 15 153 -2z"/>
        <path d="M222 444 c-55 -28 -77 -69 -77 -144 0 -51 5 -72 22 -96 32 -45 85
        -67 148 -62 84 7 136 59 143 143 5 63 -17 116 -61 147 -41 29 -129 35 -175 12z
        m88 -37 c0 -7 14 -18 31 -24 19 -8 34 -23 42 -42 6 -17 17 -31 24 -31 7 0 13
        -4 13 -10 0 -5 -6 -10 -13 -10 -7 0 -18 -14 -24 -31 -8 -19 -23 -34 -42 -42
        -17 -6 -31 -17 -31 -24 0 -7 -4 -13 -10 -13 -5 0 -10 6 -10 13 0 7 -14 18 -31
        24 -19 8 -34 23 -42 42 -6 17 -17 31 -24 31 -22 0 -13 16 46 74 59 60 71 67
        71 43z"/>
        <path d="M247 352 c-20 -22 -22 -38 -4 -45 9 -4 8 -8 -3 -16 -17 -12 -6 -37
        23 -55 13 -8 20 -7 27 4 9 13 11 13 20 0 11 -17 36 -6 54 23 8 13 7 20 -4 27
        -13 9 -13 11 0 20 11 7 12 14 4 27 -18 29 -43 40 -55 23 -8 -11 -12 -12 -16
        -2 -7 17 -27 15 -46 -6z m69 -43 c10 -17 -13 -36 -27 -22 -12 12 -4 33 11 33
        5 0 12 -5 16 -11z"/>
    </g>
</svg>
