<svg version="1.0" xmlns="http://www.w3.org/2000/svg"
 width="60.000000pt" height="60.000000pt" viewBox="0 0 60.000000 60.000000"
 preserveAspectRatio="xMidYMid meet">
    <g transform="translate(0.000000,60.000000) scale(0.100000,-0.100000)" stroke="none" class="page-icon">
        <path d="M203 582 c-251 -90 -272 -432 -35 -549 81 -40 183 -40 264 0 175 86
        221 315 93 465 -74 86 -214 123 -322 84z m208 -101 c39 -39 39 -71 0 -71 -21
        0 -30 6 -34 21 -4 15 -12 20 -29 17 -19 -2 -24 -10 -26 -40 -3 -35 -1 -38 22
        -38 22 0 26 -4 26 -30 0 -25 -4 -30 -25 -30 -24 0 -25 -2 -25 -76 0 -70 -2
        -78 -29 -105 -40 -39 -82 -39 -122 0 -39 40 -39 71 0 71 21 0 32 -6 36 -21 5
        -14 14 -19 28 -17 20 3 22 10 25 76 3 71 3 72 -23 72 -21 0 -25 5 -25 30 0 25
        4 30 25 30 23 0 25 4 25 41 0 52 42 99 90 99 22 0 41 -9 61 -29z m-9 -268 c17
        -15 19 -15 38 2 26 24 39 11 15 -15 -17 -19 -17 -21 0 -40 10 -11 15 -23 12
        -27 -4 -3 -16 2 -27 12 -19 17 -21 17 -40 0 -26 -24 -39 -11 -15 15 17 19 17
        21 2 38 -30 33 -18 45 15 15z"/>
        <path d="M301 464 c-14 -18 -21 -41 -21 -70 0 -40 -2 -44 -25 -44 -14 0 -25
        -4 -25 -10 0 -5 11 -10 25 -10 25 0 25 -1 25 -79 0 -107 -32 -140 -87 -89 -32
        30 -41 15 -10 -16 32 -32 67 -33 95 -3 19 20 22 35 22 105 0 81 0 82 25 82 14
        0 25 5 25 10 0 6 -11 10 -25 10 -23 0 -25 4 -25 43 0 70 48 100 90 55 11 -12
        23 -18 27 -15 3 4 -4 18 -17 32 -31 33 -72 33 -99 -1z"/>
    </g>
</svg>
