<svg version="1.0" xmlns="http://www.w3.org/2000/svg"
 width="50.000000pt" height="50.000000pt" viewBox="0 0 50.000000 50.000000"
 preserveAspectRatio="xMidYMid meet">
    <g transform="translate(0.000000,50.000000) scale(0.100000,-0.100000)" stroke="none" class="page-icon">
        <path d="M24 437 c-2 -7 -3 -82 -2 -167 l3 -155 225 0 225 0 0 165 0 165 -223
        3 c-176 2 -224 0 -228 -11z m436 -157 l0 -150 -210 0 -210 0 0 150 0 150 210
        0 210 0 0 -150z"/>
        <path d="M74 357 c-3 -8 -4 -45 -2 -83 l3 -69 45 0 45 0 0 80 0 80 -43 3 c-29
        2 -44 -1 -48 -11z m56 -117 c0 -5 -4 -10 -10 -10 -5 0 -10 5 -10 10 0 6 5 10
        10 10 6 0 10 -4 10 -10z"/>
        <path d="M214 357 c-3 -8 -4 -45 -2 -83 l3 -69 105 0 105 0 0 80 0 80 -103 3
        c-80 2 -104 0 -108 -11z m116 -117 c0 -5 -4 -10 -10 -10 -5 0 -10 5 -10 10 0
        6 5 10 10 10 6 0 10 -4 10 -10z"/>
        <path d="M240 150 c0 -5 5 -10 10 -10 6 0 10 5 10 10 0 6 -4 10 -10 10 -5 0
        -10 -4 -10 -10z"/>
        <path d="M200 86 c0 -8 -10 -16 -22 -18 -13 -2 -24 -11 -26 -20 -3 -16 7 -18
        98 -18 91 0 101 2 98 18 -2 9 -13 18 -26 20 -12 2 -22 10 -22 18 0 10 -13 14
        -50 14 -37 0 -50 -4 -50 -14z"/>
    </g>
</svg>
