<svg version="1.0" xmlns="http://www.w3.org/2000/svg"
 width="50.000000pt" height="50.000000pt" viewBox="0 0 50.000000 50.000000"
 preserveAspectRatio="xMidYMid meet">
    <g transform="translate(0.000000,50.000000) scale(0.100000,-0.100000)" stroke="none" class="page-icon">
        <path d="M163 426 c-83 -26 -163 -94 -163 -138 0 -12 20 -41 46 -65 25 -25 44
        -46 42 -47 -1 -1 -18 -13 -35 -25 -60 -41 -33 -113 29 -80 34 18 47 40 48 76
        0 17 5 35 10 38 6 4 10 -8 10 -30 0 -41 26 -60 42 -30 8 13 12 15 18 4 12 -18
        32 1 55 52 18 38 19 39 27 18 6 -17 3 -28 -12 -45 -15 -15 -18 -24 -10 -29 16
        -10 61 23 59 43 -4 23 10 62 22 62 12 0 12 -37 -1 -45 -15 -9 -12 -45 3 -45
        19 0 37 21 37 42 0 10 8 19 18 19 54 4 86 -14 79 -43 -3 -10 -1 -16 4 -12 15
        9 10 40 -11 59 -13 12 -31 16 -60 13 -41 -4 -45 1 -42 45 3 30 -24 18 -43 -20
        l-19 -38 -4 33 c-2 17 -8 32 -13 32 -6 0 -23 -28 -40 -62 -24 -52 -28 -57 -23
        -28 3 22 0 42 -9 54 -14 19 -16 19 -62 -12 l-49 -32 -25 22 c-66 58 -67 82 -9
        133 73 61 197 82 206 33 8 -43 -90 -107 -144 -94 -17 5 -23 3 -19 -4 9 -15 92
        -12 125 5 39 20 60 53 60 93 0 28 -5 35 -35 48 -41 17 -57 17 -112 0z m31
        -258 c-13 -24 -19 -28 -22 -16 -2 9 5 32 14 50 13 24 19 28 22 16 2 -9 -5 -32
        -14 -50z m-100 -59 c-9 -10 -23 -19 -31 -19 -23 0 -14 38 15 58 l27 21 3 -20
        c2 -12 -4 -29 -14 -40z"/>
    </g>
</svg>
