<svg version="1.0" xmlns="http://www.w3.org/2000/svg"
 width="60.000000pt" height="60.000000pt" viewBox="0 0 60.000000 60.000000"
 preserveAspectRatio="xMidYMid meet">
    <g transform="translate(0.000000,60.000000) scale(0.100000,-0.100000)" stroke="none" class="page-icon">
        <path d="M7 593 c-4 -3 -7 -24 -7 -45 0 -27 6 -41 20 -50 19 -12 20 -24 20
        -198 0 -176 -1 -186 -21 -198 -16 -10 -19 -21 -17 -55 3 -42 3 -42 45 -45 34
        -2 45 1 55 17 12 20 22 21 198 21 176 0 186 -1 198 -21 10 -16 21 -19 55 -17
        42 3 42 3 45 45 2 34 -1 45 -17 55 -20 12 -21 22 -21 198 0 176 1 186 21 198
        16 10 19 21 17 55 -3 42 -3 42 -45 45 -34 2 -45 -1 -55 -17 -12 -20 -22 -21
        -198 -21 -174 0 -186 1 -198 20 -9 14 -23 20 -50 20 -21 0 -42 -3 -45 -7z
        m486 -74 c3 -11 15 -23 26 -26 20 -5 21 -12 21 -193 0 -181 -1 -188 -21 -193
        -11 -3 -23 -15 -26 -26 -5 -20 -12 -21 -193 -21 -181 0 -188 1 -193 21 -3 11
        -15 23 -26 26 -20 5 -21 12 -21 193 0 181 1 188 21 193 11 3 23 15 26 26 5 20
        12 21 193 21 181 0 188 -1 193 -21z"/>
        <path d="M263 468 c-5 -7 -33 -82 -62 -166 -42 -123 -50 -156 -41 -167 20 -24
        50 -17 68 15 16 28 21 30 74 30 53 0 58 -2 64 -25 8 -33 52 -45 70 -21 10 14
        4 41 -36 160 -26 78 -53 152 -59 164 -13 25 -62 30 -78 10z m66 -143 c7 -15
        14 -42 15 -59 1 -30 -1 -31 -42 -34 -51 -4 -59 10 -42 65 23 70 44 79 69 28z"/>
    </g>
</svg>
