<svg version="1.0" xmlns="http://www.w3.org/2000/svg"
 width="60.000000pt" height="60.000000pt" viewBox="0 0 60.000000 60.000000"
 preserveAspectRatio="xMidYMid meet">
    <g transform="translate(0.000000,60.000000) scale(0.100000,-0.100000)" stroke="none" class="page-icon">
        <path d="M16 584 c-24 -23 -24 -545 0 -568 23 -24 545 -24 568 0 24 23 24 545
        0 568 -23 24 -545 24 -568 0z m484 -140 c0 -34 -4 -53 -10 -49 -5 3 -10 20
        -10 38 l0 31 -65 -64 c-35 -35 -68 -61 -72 -57 -4 4 22 37 57 72 l64 65 -31 0
        c-18 0 -35 5 -38 10 -4 6 15 10 49 10 l56 0 0 -56z m-216 -160 c12 -11 16 -36
        16 -90 0 -111 -3 -114 -108 -114 -55 0 -92 4 -100 12 -8 8 -12 45 -12 100 0
        105 2 107 112 108 57 0 81 -4 92 -16z"/>
    </g>
</svg>
